<?xml version="1.0" standalone="no"?>
<!DOCTYPE svg PUBLIC "-//W3C//DTD SVG 20010904//EN"
 "http://www.w3.org/TR/2001/REC-SVG-20010904/DTD/svg10.dtd">
<svg version="1.0" xmlns="http://www.w3.org/2000/svg"
 width="700.000000pt" height="700.000000pt" viewBox="0 0 700.000000 700.000000"
 preserveAspectRatio="xMidYMid meet">
<metadata>
Created by potrace 1.14, written by Peter Selinger 2001-2017
</metadata>
<g transform="translate(0.000000,700.000000) scale(0.100000,-0.100000)"
fill="#000000" stroke="none">
<path d="M3946 6903 c-1 -1 -242 -3 -536 -4 -555 -2 -594 -4 -685 -46 -98 -44
-187 -129 -261 -248 -267 -429 -613 -995 -617 -1010 -35 -113 9 -203 140 -282
34 -21 160 -99 279 -173 120 -74 247 -153 283 -176 36 -22 137 -84 224 -138
168 -104 202 -116 273 -97 61 16 98 60 213 247 57 93 120 195 140 226 20 31
41 64 47 74 8 14 28 -18 116 -192 58 -115 125 -246 149 -292 25 -49 38 -86 33
-91 -5 -5 -85 -47 -179 -95 -93 -47 -182 -96 -196 -108 -80 -70 -85 -199 -10
-276 27 -27 58 -44 116 -64 82 -27 279 -91 900 -293 198 -64 421 -137 495
-162 74 -24 154 -47 176 -50 50 -7 104 10 145 44 49 41 37 10 209 543 137 423
236 727 260 800 119 361 124 384 91 456 -32 70 -125 122 -197 111 -18 -3 -119
-49 -223 -101 l-190 -96 -54 107 c-30 60 -110 218 -179 353 -227 444 -431 844
-459 901 -31 64 -88 116 -136 125 -29 6 -362 12 -367 7z"/>
<path d="M2140 4630 c-71 -19 -456 -113 -735 -180 -71 -17 -184 -45 -250 -61
-66 -17 -130 -32 -141 -35 -109 -21 -447 -110 -476 -125 -79 -40 -117 -147
-84 -234 23 -59 62 -91 250 -203 86 -51 156 -96 156 -98 0 -7 -82 -146 -269
-454 -5 -8 -114 -186 -242 -395 -337 -552 -314 -508 -314 -585 0 -57 4 -72 35
-121 19 -30 40 -64 47 -75 6 -10 65 -104 131 -209 192 -306 346 -553 357 -573
61 -109 204 -318 244 -355 57 -53 169 -109 251 -126 37 -7 268 -11 696 -12
619 -1 643 0 686 19 48 21 87 65 108 122 17 47 25 1207 8 1260 -18 58 -80 113
-140 124 -13 3 -154 5 -315 5 l-292 1 137 225 c75 124 152 250 170 280 18 30
36 55 40 55 6 0 170 -98 252 -150 103 -65 150 -81 209 -70 90 16 161 98 161
184 0 21 -18 113 -41 205 -22 91 -65 267 -95 391 -29 124 -58 241 -63 260 -8
28 -90 362 -106 430 -6 29 -67 275 -69 285 -2 6 -7 30 -11 54 -17 92 -103 174
-187 178 -18 1 -67 -7 -108 -17z"/>
<path d="M5970 3692 c-58 -8 -108 -33 -350 -179 -140 -85 -264 -160 -274 -166
-11 -7 -51 -31 -88 -54 -38 -24 -71 -43 -74 -43 -3 0 -32 -18 -65 -40 -33 -22
-62 -40 -65 -40 -2 0 -44 -25 -94 -55 -99 -62 -125 -89 -141 -147 -19 -73 -6
-106 130 -330 78 -128 177 -292 179 -298 1 -3 -146 -6 -327 -7 l-329 0 0 212
c0 190 -2 217 -20 256 -10 24 -30 53 -43 65 -56 50 -154 63 -218 30 -48 -25
-1241 -1224 -1258 -1264 -19 -47 -19 -112 2 -155 23 -49 1220 -1245 1265
-1265 19 -8 58 -15 86 -15 67 0 128 39 161 104 23 44 24 55 25 257 1 186 3
212 17 216 9 2 368 4 798 4 774 0 782 0 825 20 24 12 52 33 63 48 11 15 164
313 341 663 249 495 323 649 331 695 10 57 9 157 -1 201 -15 66 -78 200 -126
270 -15 22 -48 74 -72 115 -96 160 -448 741 -481 793 -53 83 -119 119 -197
109z"/>
</g>
</svg>
